<?xml version="1.0" encoding="utf-8"?>
<svg xmlns="http://www.w3.org/2000/svg"
	xmlns:xlink="http://www.w3.org/1999/xlink"
	width="27px" height="30px" viewBox="0 0 27 30">
<path fillRule="evenodd" d="M 26.81 20.82C 24.62 26.21 19.48 30 13.5 30 9.56 30 5.98 28.35 3.37 25.68 3.37 25.68 2.39 27.21 2.39 27.21 2.14 27.6 1.68 27.77 1.26 27.63 0.83 27.5 0.54 27.09 0.54 26.63 0.54 26.63 0.58 18.5 0.58 18.5 0.58 18.15 0.76 17.82 1.04 17.63 1.33 17.44 1.69 17.41 2 17.55 2 17.55 9.11 20.87 9.11 20.87 9.51 21.06 9.75 21.51 9.69 21.96 9.63 22.42 9.29 22.79 8.85 22.86 8.85 22.86 7.55 23.07 7.55 23.07 9.2 24.39 11.26 25.19 13.5 25.19 17.57 25.19 21.06 22.6 22.54 18.93 22.9 18.04 23.74 17.46 24.67 17.46 25.45 17.46 26.18 17.87 26.61 18.54 27.04 19.22 27.12 20.08 26.81 20.82ZM 25.96 12.37C 25.67 12.56 25.31 12.59 25 12.45 25 12.45 17.89 9.13 17.89 9.13 17.49 8.94 17.25 8.49 17.31 8.04 17.37 7.58 17.71 7.21 18.15 7.14 18.15 7.14 19.45 6.93 19.45 6.93 17.8 5.61 15.74 4.81 13.5 4.81 9.43 4.81 5.94 7.4 4.46 11.07 4.1 11.96 3.26 12.54 2.33 12.54 1.55 12.54 0.82 12.13 0.39 11.46-0.04 10.78-0.12 9.92 0.19 9.18 2.38 3.79 7.52-0 13.5-0 17.44-0 21.02 1.65 23.63 4.32 23.63 4.32 24.61 2.79 24.61 2.79 24.86 2.4 25.32 2.23 25.74 2.37 26.17 2.5 26.46 2.91 26.46 3.37 26.46 3.37 26.42 11.5 26.42 11.5 26.42 11.85 26.24 12.18 25.96 12.37Z" fill="rgb(69,161,65)"/></svg>