<?xml version="1.0" encoding="utf-8"?>
<svg xmlns="http://www.w3.org/2000/svg"
	xmlns:xlink="http://www.w3.org/1999/xlink"
	width="19px" height="17px" viewBox="0 0 19 17">
<path fillRule="evenodd" d="M 18.26 17C 18.26 17 0.74 17 0.74 17 0.33 17-0 16.67-0 16.25-0 16.25-0 0.75-0 0.75-0 0.33 0.33-0 0.74-0 1.14-0 1.47 0.33 1.47 0.75 1.47 0.75 1.47 15.51 1.47 15.51 1.47 15.51 2.99 15.51 2.99 15.51 2.99 15.51 2.99 11.41 2.99 11.41 3.11 11.44 3.24 11.46 3.37 11.46 3.65 11.46 3.93 11.38 4.17 11.22 4.17 11.22 4.46 11.03 4.46 11.03 4.46 11.03 4.46 15.51 4.46 15.51 4.46 15.51 6.91 15.51 6.91 15.51 6.91 15.51 6.91 9.41 6.91 9.41 6.91 9.41 7.99 8.7 7.99 8.7 7.99 8.7 8.39 8.88 8.39 8.88 8.39 8.88 8.39 15.51 8.39 15.51 8.39 15.51 10.84 15.51 10.84 15.51 10.84 15.51 10.84 9.99 10.84 9.99 10.84 9.99 11.23 10.17 11.23 10.17 11.42 10.26 11.62 10.3 11.83 10.3 12 10.3 12.16 10.27 12.31 10.22 12.31 10.22 12.31 15.51 12.31 15.51 12.31 15.51 14.76 15.51 14.76 15.51 14.76 15.51 14.76 8.1 14.76 8.1 14.76 8.1 15.37 7.53 15.37 7.53 15.57 7.83 15.88 8.04 16.24 8.12 16.24 8.12 16.24 15.51 16.24 15.51 16.24 15.51 18.26 15.51 18.26 15.51 18.67 15.51 19 15.84 19 16.25 19 16.67 18.67 17 18.26 17ZM 16.57 7.42C 16.16 7.42 15.83 7.08 15.83 6.67 15.83 6.67 15.83 6.09 15.83 6.09 15.83 6.09 12.33 9.36 12.33 9.36 12.19 9.49 12.01 9.55 11.83 9.55 11.73 9.55 11.63 9.53 11.53 9.49 11.53 9.49 7.92 7.85 7.92 7.85 7.92 7.85 3.77 10.6 3.77 10.6 3.64 10.68 3.51 10.72 3.37 10.72 3.13 10.72 2.89 10.6 2.75 10.38 2.53 10.03 2.62 9.57 2.97 9.35 2.97 9.35 7.45 6.38 7.45 6.38 7.58 6.3 7.72 6.26 7.86 6.26 7.96 6.26 8.06 6.28 8.16 6.33 8.16 6.33 11.69 7.93 11.69 7.93 11.69 7.93 14.67 5.14 14.67 5.14 14.67 5.14 14.32 5.14 14.32 5.14 13.92 5.14 13.59 4.81 13.59 4.4 13.59 3.99 13.92 3.65 14.32 3.65 14.32 3.65 16.57 3.65 16.57 3.65 16.97 3.65 17.3 3.99 17.3 4.4 17.3 4.4 17.3 6.67 17.3 6.67 17.3 7.08 16.97 7.42 16.57 7.42Z" fill="rgb(83,83,83)"/></svg>