<?xml version="1.0" encoding="utf-8"?>
<svg xmlns="http://www.w3.org/2000/svg"
	xmlns:xlink="http://www.w3.org/1999/xlink"
	width="15px" height="10px" viewBox="0 0 15 10">
<path fillRule="evenodd" d="M 14.07 1.43C 14.07 1.43 5.69 9.57 5.69 9.57 5.61 9.64 5.49 9.64 5.42 9.57 5.42 9.57 0.66 4.94 0.66 4.94 0.59 4.87 0.59 4.76 0.66 4.69 0.66 4.69 1.82 3.56 1.82 3.56 1.89 3.49 2.01 3.49 2.08 3.56 2.08 3.56 5.55 6.93 5.55 6.93 5.55 6.93 12.65 0.05 12.65 0.05 12.72-0.03 12.84-0.03 12.91 0.05 12.91 0.05 14.07 1.17 14.07 1.17 14.14 1.24 14.14 1.36 14.07 1.43Z" fill="rgb(69,161,65)"/></svg>