<?xml version="1.0" encoding="utf-8"?>
<svg xmlns="http://www.w3.org/2000/svg"
	xmlns:xlink="http://www.w3.org/1999/xlink"
	width="16px" height="16px" viewBox="0 0 16 16">
<rect x="0" y="0" width="16" height="16" fill="rgb(83,83,83)"/><path fillRule="evenodd" d="M 14 3.2C 14 3.2 12.8 2 12.8 2 12.8 2 8 6.8 8 6.8 8 6.8 3.2 2 3.2 2 3.2 2 2 3.2 2 3.2 2 3.2 6.8 8 6.8 8 6.8 8 2 12.8 2 12.8 2 12.8 3.2 14 3.2 14 3.2 14 8 9.2 8 9.2 8 9.2 12.8 14 12.8 14 12.8 14 14 12.8 14 12.8 14 12.8 9.2 8 9.2 8 9.2 8 14 3.2 14 3.2Z" fill="rgb(255,255,255)"/></svg>