<?xml version="1.0" encoding="utf-8"?>
<svg xmlns="http://www.w3.org/2000/svg"
	xmlns:xlink="http://www.w3.org/1999/xlink"
	width="13px" height="15px" viewBox="0 0 13 15">
<path fillRule="evenodd" d="M 12.99 8.14C 12.99 8.14 6 15 6 15 6 15 5 14 5 14 5 14 11.03 7.86 11.03 7.86 11.03 7.86 5 2 5 2 5 2 6-0 6-0 6-0 6 1 6 1 6 1 12.99 7.47 12.99 7.47 12.99 7.47 12.62 7.77 12.62 7.77 12.62 7.77 12.99 8.14 12.99 8.14Z" fill="rgb(69,161,65)"/><path fillRule="evenodd" d="M 7.99 8.14C 7.99 8.14 1 15 1 15 1 15-0 14-0 14-0 14 6.03 7.86 6.03 7.86 6.03 7.86-0 2-0 2-0 2 1-0 1-0 1-0 1 1 1 1 1 1 7.99 7.47 7.99 7.47 7.99 7.47 7.62 7.77 7.62 7.77 7.62 7.77 7.99 8.14 7.99 8.14Z" fill="rgb(69,161,65)"/></svg>