<?xml version="1.0" encoding="utf-8"?>
<svg xmlns="http://www.w3.org/2000/svg"
	xmlns:xlink="http://www.w3.org/1999/xlink"
	width="15px" height="11px" viewBox="0 0 15 11">
<path fillRule="evenodd" d="M 14.92 1.64C 14.92 1.64 5.62 10.91 5.62 10.91 5.54 11 5.41 11 5.33 10.91 5.33 10.91 0.04 5.65 0.04 5.65-0.04 5.57-0.04 5.43 0.04 5.35 0.04 5.35 1.33 4.07 1.33 4.07 1.41 3.99 1.54 3.99 1.62 4.07 1.62 4.07 5.47 7.91 5.47 7.91 5.47 7.91 13.35 0.06 13.35 0.06 13.43-0.02 13.56-0.02 13.64 0.06 13.64 0.06 14.92 1.34 14.92 1.34 15.01 1.42 15.01 1.56 14.92 1.64Z" fill="rgb(69,161,65)"/></svg>