<?xml version="1.0" encoding="utf-8"?>
<svg xmlns="http://www.w3.org/2000/svg"
	xmlns:xlink="http://www.w3.org/1999/xlink"
	width="21px" height="30px" viewBox="0 0 21 30">
<path fillRule="evenodd" d="M 20.36 6.91C 20.36 6.91 19.26 6.91 19.26 6.91 19.26 6.91 1.74 6.91 1.74 6.91 1.74 6.91 0.64 6.91 0.64 6.91 0.29 6.91-0 6.61-0 6.25-0 6.25-0 4.56-0 4.56-0 4.19 0.29 3.89 0.64 3.89 0.64 3.89 5.11 3.89 5.11 3.89 5.11 3.89 5.11 3.48 5.11 3.48 5.11 3.48 5.11 3.06 5.11 3.06 5.11 3.06 5.11 0.67 5.11 0.67 5.11 0.3 5.4-0 5.75-0 5.75-0 15.25-0 15.25-0 15.6-0 15.89 0.3 15.89 0.67 15.89 0.67 15.89 3.06 15.89 3.06 15.89 3.06 15.89 3.48 15.89 3.48 15.89 3.48 15.89 3.89 15.89 3.89 15.89 3.89 20.36 3.89 20.36 3.89 20.71 3.89 21 4.19 21 4.56 21 4.56 21 6.25 21 6.25 21 6.61 20.71 6.91 20.36 6.91ZM 13.49 3.48C 13.49 3.48 13.49 3.06 13.49 3.06 13.49 3.06 13.49 2.5 13.49 2.5 13.49 2.5 7.51 2.5 7.51 2.5 7.51 2.5 7.51 3.06 7.51 3.06 7.51 3.06 7.51 3.48 7.51 3.48 7.51 3.48 7.51 3.76 7.51 3.76 7.51 3.76 13.49 3.76 13.49 3.76 13.49 3.76 13.49 3.48 13.49 3.48ZM 19.26 29.33C 19.26 29.7 18.97 30 18.62 30 18.62 30 2.38 30 2.38 30 2.03 30 1.74 29.7 1.74 29.33 1.74 29.33 1.74 7.75 1.74 7.75 1.74 7.75 19.26 7.75 19.26 7.75 19.26 7.75 19.26 29.33 19.26 29.33ZM 6.9 11.42C 6.9 11.42 4.5 11.42 4.5 11.42 4.5 11.42 4.5 25.95 4.5 25.95 4.5 25.95 6.9 25.95 6.9 25.95 6.9 25.95 6.9 11.42 6.9 11.42ZM 11.7 11.42C 11.7 11.42 9.3 11.42 9.3 11.42 9.3 11.42 9.3 25.95 9.3 25.95 9.3 25.95 11.7 25.95 11.7 25.95 11.7 25.95 11.7 11.42 11.7 11.42ZM 16.5 11.42C 16.5 11.42 14.1 11.42 14.1 11.42 14.1 11.42 14.1 25.95 14.1 25.95 14.1 25.95 16.5 25.95 16.5 25.95 16.5 25.95 16.5 11.42 16.5 11.42Z" fill="rgb(83,83,83)"/></svg>