<?xml version="1.0" encoding="utf-8"?>
<svg xmlns="http://www.w3.org/2000/svg"
	xmlns:xlink="http://www.w3.org/1999/xlink"
	width="24px" height="23px" viewBox="0 0 24 23">
<path fillRule="evenodd" d="M 16.01 2.61C 12.35-0.9 6.39-0.9 2.73 2.61-0.93 6.13-0.93 11.85 2.73 15.36 5.99 18.49 11.07 18.82 14.73 16.38 14.81 16.73 14.98 17.06 15.27 17.33 15.27 17.33 20.6 22.45 20.6 22.45 21.37 23.19 22.63 23.19 23.41 22.45 24.18 21.71 24.18 20.5 23.41 19.76 23.41 19.76 18.07 14.64 18.07 14.64 17.79 14.37 17.44 14.2 17.08 14.13 19.62 10.62 19.27 5.74 16.01 2.61ZM 14.33 13.74C 11.6 16.37 7.15 16.37 4.41 13.74 1.68 11.12 1.68 6.85 4.41 4.23 7.15 1.61 11.6 1.61 14.33 4.23 17.06 6.85 17.06 11.12 14.33 13.74Z" fill="rgb(255,255,255)"/></svg>